HIERARCHY
ROOT RootJoint
{
    OFFSET   0.000000   0.000000   0.000000
    CHANNELS 6 Xposition Yposition Zposition Xrotation Yrotation Zrotation
    JOINT pelvis_lowerback
    {
        OFFSET   0.000000   0.093605   0.000000
        CHANNELS 3 Xrotation Yrotation Zrotation
        JOINT lowerback_torso
        {
            OFFSET   0.000000   0.100000   0.000000
            CHANNELS 3 Xrotation Yrotation Zrotation
            JOINT torso_head
            {
                OFFSET   0.000000   0.282350   0.000000
                CHANNELS 3 Xrotation Yrotation Zrotation
                End Site
                {
                    OFFSET   0.000000   0.192650   0.000000
                }
            }
            JOINT rTorso_Clavicle
            {
                OFFSET  -0.001000   0.157500   0.000000
                CHANNELS 3 Xrotation Yrotation Zrotation
                JOINT rShoulder
                {
                    OFFSET  -0.117647   0.000000   0.000000
                    CHANNELS 3 Xrotation Yrotation Zrotation
                    JOINT rElbow
                    {
                        OFFSET  -0.245000   0.000000   0.000000
                        CHANNELS 3 Xrotation Yrotation Zrotation
                        JOINT rWrist
                        {
                            OFFSET  -0.240000   0.000000   0.000000
                            CHANNELS 3 Xrotation Yrotation Zrotation
                            End Site
                            {
                                OFFSET  -0.116353  -0.002500   0.000000
                            }
                        }
                    }
                }
            }
            JOINT lTorso_Clavicle
            {
                OFFSET   0.001000   0.157500   0.000000
                CHANNELS 3 Xrotation Yrotation Zrotation
                JOINT lShoulder
                {
                    OFFSET   0.117647   0.000000   0.000000
                    CHANNELS 3 Xrotation Yrotation Zrotation
                    JOINT lElbow
                    {
                        OFFSET   0.245000   0.000000   0.000000
                        CHANNELS 3 Xrotation Yrotation Zrotation
                        JOINT lWrist
                        {
                            OFFSET   0.240000   0.000000   0.000000
                            CHANNELS 3 Xrotation Yrotation Zrotation
                            End Site
                            {
                                OFFSET   0.116353  -0.002500   0.000000
                            }
                        }
                    }
                }
            }
        }
    }
    JOINT rHip
    {
        OFFSET  -0.100000  -0.051395   0.000000
        CHANNELS 3 Xrotation Yrotation Zrotation
        JOINT rKnee
        {
            OFFSET   0.000000  -0.410000   0.000000
            CHANNELS 3 Xrotation Yrotation Zrotation
            JOINT rAnkle
            {
                OFFSET   0.000000  -0.390000   0.000000
                CHANNELS 3 Xrotation Yrotation Zrotation
                JOINT rToeJoint
                {
                    OFFSET   0.000000  -0.050000   0.130000
                    CHANNELS 3 Xrotation Yrotation Zrotation
                    End Site
                    {
                        OFFSET  -0.010000   0.002000   0.060000
                    }
                }
            }
        }
    }
    JOINT lHip
    {
        OFFSET   0.100000  -0.051395   0.000000
        CHANNELS 3 Xrotation Yrotation Zrotation
        JOINT lKnee
        {
            OFFSET   0.000000  -0.410000   0.000000
            CHANNELS 3 Xrotation Yrotation Zrotation
            JOINT lAnkle
            {
                OFFSET   0.000000  -0.390000   0.000000
                CHANNELS 3 Xrotation Yrotation Zrotation
                JOINT lToeJoint
                {
                    OFFSET   0.000000  -0.050000   0.130000
                    CHANNELS 3 Xrotation Yrotation Zrotation
                    End Site
                    {
                        OFFSET   0.010000   0.002000   0.060000
                    }
                }
            }
        }
    }
}
MOTION
Frames: 15
Frame Time:   0.008333
 -1.320512   0.920992   4.114259  -5.054837 -10.394367  -1.423312   8.953515  -1.119064  -2.589118   2.280788  -1.882600   0.601093  -0.457251   0.997869   1.315488   2.138426   0.787687   6.035456   7.638467  13.186952  49.906424   0.000003  15.870007   0.000012   9.107166   1.982438   4.826619   1.834600  -2.938059  -4.278555   7.808808 -16.607578 -47.125566   0.000349 -13.878733   0.000227   9.796885  -2.625104  -5.330764   1.272631  -1.999039  -5.860562  25.544047  -0.000062  -0.000503  -5.634313  -5.667321   5.280223 -14.555856   0.002566   0.002764   9.213356   0.316974   1.817564  -0.000396  -0.000002   0.000001  -4.064647   3.539000   1.055458  -0.286452  -0.000011  -0.000001
 -1.320490   0.921001   4.114665  -5.042723 -10.411606  -1.443526   8.972140  -1.110998  -2.559309   2.265514  -1.881009   0.619155  -0.437482   0.938169   1.305328   2.176565   0.797179   6.042484   7.642715  13.180898  49.828468   0.000003  15.868120   0.000010   9.119783   2.004856   4.822650   1.871615  -2.973284  -4.289365   7.893456 -16.658031 -47.221755   0.000379 -13.950902   0.000286   9.798754  -2.613088  -5.291085   1.088687  -2.095443  -5.880496  25.885280  -0.000126  -0.000800  -5.591017  -5.582709   5.419907 -14.578860   0.002072   0.002233   9.231586   0.317226   1.830909  -0.000317  -0.000002   0.000001  -4.096558   3.559592   1.069939  -0.284758  -0.000009  -0.000000
 -1.320534   0.921018   4.115095  -5.042149 -10.417566  -1.472398   8.993998  -1.112362  -2.522747   2.259548  -1.883949   0.640586  -0.417108   0.881618   1.296671   2.213380   0.803788   6.046333   7.648441  13.173371  49.751561   0.000003  15.865608   0.000008   9.132324   2.026068   4.811533   1.910123  -3.006284  -4.306334   7.973806 -16.706133 -47.319845   0.000398 -14.018076   0.000324   9.800142  -2.601377  -5.269661   0.908590  -2.186474  -5.889977  26.248483  -0.000176  -0.001012  -5.544475  -5.495911   5.552180 -14.541016   0.001624   0.001759   9.263270   0.313180   1.856852  -0.000253  -0.000001   0.000000  -4.131168   3.575125   1.084763  -0.281856  -0.000007  -0.000000
 -1.320645   0.921034   4.115548  -5.044708 -10.414030  -1.502030   9.013338  -1.117918  -2.486182   2.256770  -1.890401   0.661648  -0.397545   0.828599   1.289580   2.250702   0.806424   6.048621   7.656495  13.164042  49.679049   0.000003  15.862153   0.000007   9.144651   2.041953   4.799832   1.947896  -3.036351  -4.326116   8.049340 -16.751271 -47.415222   0.000406 -14.080614   0.000342   9.801174  -2.590545  -5.259945   0.740631  -2.270432  -5.894026  26.603566  -0.000208  -0.001117  -5.498393  -5.411628   5.676367 -14.480359   0.001249   0.001371   9.299677   0.305530   1.888556  -0.000203  -0.000001   0.000000  -4.167846   3.585415   1.099214  -0.277985  -0.000007  -0.000000
 -1.320820   0.921043   4.116017  -5.047033 -10.404957  -1.529178   9.029532  -1.125026  -2.452267   2.254474  -1.898576   0.680723  -0.379428   0.779066   1.283310   2.287953   0.806268   6.050141   7.666162  13.153575  49.611210   0.000003  15.857982   0.000006   9.156803   2.052569   4.789526   1.984107  -3.063827  -4.346665   8.120114 -16.793499 -47.506150   0.000404 -14.138896   0.000345   9.802015  -2.580537  -5.256113   0.584923  -2.348008  -5.895243  26.942175  -0.000229  -0.001145  -5.454456  -5.330937   5.792785 -14.415186   0.000946   0.001065   9.337147   0.295887   1.922580  -0.000162  -0.000001   0.000000  -4.206135   3.592224   1.112855  -0.273333  -0.000006  -0.000000
 -1.321056   0.921046   4.116495  -5.047787 -10.392956  -1.552607   9.042987  -1.132552  -2.421792   2.251806  -1.907408   0.697303  -0.362811   0.732840   1.277482   2.324246   0.804501   6.051120   7.676550  13.142679  49.547765   0.000003  15.853455   0.000006   9.168710   2.059304   4.780500   2.018361  -3.089129  -4.366983   8.186256 -16.833008 -47.591972   0.000393 -14.193257   0.000336   9.802756  -2.571238  -5.255057   0.440568  -2.419991  -5.894726  27.261939  -0.000242  -0.001123  -5.413396  -5.254289   5.901844 -14.355212   0.000709   0.000827   9.374081   0.285335   1.957348  -0.000130  -0.000001   0.000000  -4.245708   3.596823   1.125526  -0.268004  -0.000006  -0.000000
 -1.321348   0.921039   4.116978  -5.046385 -10.379530  -1.571879   9.054235  -1.139999  -2.394785   2.248564  -1.916330   0.711383  -0.347571   0.689710   1.271938   2.358934   0.801952   6.051595   7.687005  13.131857  49.488340   0.000004  15.848865   0.000005   9.180289   2.063580   4.772170   2.050480  -3.112617  -4.386601   8.247932 -16.870025 -47.672549   0.000376 -14.244006   0.000321   9.803435  -2.562620  -5.255223   0.306603  -2.487003  -5.892947  27.562543  -0.000252  -0.001068  -5.375549  -5.181806   6.003984 -14.306027   0.000529   0.000644   9.409678   0.274494   1.992135  -0.000104  -0.000001   0.000000  -4.286318   3.599982   1.137200  -0.262056  -0.000006  -0.000000
 -1.321600   0.921005   4.117445  -5.030912 -10.426268  -1.580788   9.057211  -1.121859  -2.348439   2.232062  -1.911882   0.709079  -0.313316   0.658537   1.244989   2.396833   0.805733   6.045738   7.674809  13.119365  49.419020   0.000000  15.859675   0.000005   9.185834   2.056512   4.751116   2.086690  -3.148024  -4.406135   8.332154 -16.923363 -47.758993   0.000348 -14.281553   0.000313   9.804350  -2.556472  -5.239619   0.125564  -2.586453  -5.976149  27.827369  -0.000202  -0.001279  -5.722452  -5.165439   5.949269 -13.265537   0.001216  -0.000625   9.435217   0.295066   2.008290  -0.000083  -0.000000   0.000000  -4.327162   3.629316   1.128961  -0.261578  -0.000005  -0.000000
 -1.321896   0.920974   4.117908  -5.019538 -10.487585  -1.595848   9.064499  -1.104042  -2.292968   2.217166  -1.904369   0.711580  -0.280318   0.629633   1.220074   2.425556   0.814487   6.037699   7.658272  13.111026  49.350089  -0.000002  15.872113   0.000006   9.189864   2.059254   4.715526   2.121345  -3.182719  -4.428580   8.410574 -16.974366 -47.843310   0.000318 -14.316319   0.000305   9.805305  -2.547700  -5.232259  -0.061415  -2.676319  -6.099400  28.056737  -0.000090  -0.001444  -6.049981  -5.151898   5.897340 -12.319755   0.001973  -0.001679   9.467089   0.323440   2.030839  -0.000066  -0.000000   0.000000  -4.370342   3.666584   1.118227  -0.261003  -0.000004  -0.000000
 -1.322274   0.920953   4.118372  -5.012472 -10.547871  -1.619964   9.074073  -1.089776  -2.231892   2.204775  -1.897838   0.721306  -0.248863   0.602394   1.198336   2.449661   0.825009   6.030882   7.640458  13.105032  49.285487  -0.000004  15.884857   0.000008   9.193069   2.068442   4.675697   2.152977  -3.216623  -4.450550   8.482845 -17.023000 -47.922692   0.000288 -14.349028   0.000293   9.806134  -2.539541  -5.228014  -0.248458  -2.754838  -6.246227  28.262106   0.000049  -0.001542  -6.356063  -5.139591   5.848610 -11.453357   0.002686  -0.002413   9.504639   0.352637   2.067335  -0.000053  -0.000000   0.000000  -4.415759   3.704052   1.107772  -0.259010  -0.000003  -0.000000
 -1.322750   0.920944   4.118840  -5.009096 -10.601701  -1.653154   9.084439  -1.078964  -2.167549   2.194263  -1.893257   0.737461  -0.219052   0.576800   1.179123   2.471551   0.835562   6.026618   7.622976  13.100292  49.226590  -0.000004  15.897240   0.000009   9.195775   2.080927   4.637683   2.181353  -3.249593  -4.470170   8.549383 -17.069171 -47.996015   0.000258 -14.379885   0.000279   9.806865  -2.532679  -5.223335  -0.433189  -2.823060  -6.408487  28.448597   0.000194  -0.001580  -6.641944  -5.128242   5.802915 -10.659470   0.003303  -0.002864   9.547032   0.380193   2.119825  -0.000042  -0.000000   0.000000  -4.463462   3.738968   1.098456  -0.255101  -0.000003  -0.000000
 -1.323335   0.920944   4.119313  -5.008795 -10.647364  -1.694407   9.094639  -1.071023  -2.101850   2.184971  -1.890617   0.758677  -0.190970   0.552819   1.161870   2.492311   0.845409   6.025143   7.606530  13.096245  49.173577  -0.000003  15.908954   0.000010   9.198176   2.094786   4.604063   2.206661  -3.281378  -4.486657   8.610748 -17.112763 -48.062958   0.000229 -14.408960   0.000263   9.807567  -2.526896  -5.216431  -0.614315  -2.882088  -6.581426  28.618985   0.000331  -0.001573  -6.908911  -5.117719   5.760080  -9.932078   0.003802  -0.003095   9.593611   0.405261   2.188194  -0.000034  -0.000000   0.000000  -4.513497   3.770416   1.090523  -0.249083  -0.000004  -0.000000
 -1.324031   0.920953   4.119791  -5.011004 -10.684547  -1.742365   9.104070  -1.065375  -2.036316   2.176378  -1.889641   0.783558  -0.164644   0.530382   1.146185   2.512363   0.854297   6.026186   7.591356  13.092617  49.126096  -0.000002  15.919894   0.000010   9.200374   2.109008   4.575492   2.229213  -3.311783  -4.499842   8.667470 -17.153728 -48.123653   0.000202 -14.436297   0.000244   9.808291  -2.521798  -5.206623  -0.791044  -2.932895  -6.761845  28.775112   0.000452  -0.001532  -7.158196  -5.107936   5.719935  -9.265644   0.004179  -0.003162   9.643788   0.427605   2.271478  -0.000027  -0.000000   0.000000  -4.565854   3.798163   1.083985  -0.240898  -0.000005  -0.000000
 -1.324718   0.920854   4.120314  -4.994774 -10.759261  -1.760989   9.090063  -1.039113  -1.982224   2.158196  -1.891983   0.795122  -0.137947   0.521327   1.115932   2.498726   0.853926   6.006140   7.571515  13.081367  49.095428  -0.000005  15.935281   0.000019   9.201878   2.096704   4.554197   2.254847  -3.335621  -4.513171   8.735924 -17.203139 -48.158097   0.000168 -14.452700   0.000218   9.809047  -2.511106  -5.215367  -0.940789  -3.006903  -7.036934  28.702710   0.000251  -0.001046  -7.467726  -5.148625   5.551133  -8.677272   0.005206  -0.003556   9.670839   0.482602   2.320275  -0.000022  -0.000000   0.000000  -4.499322   3.835170   1.082783  -0.884278   0.000245  -0.000044
 -1.325454   0.920780   4.120816  -4.971182 -10.850160  -1.760932   9.077084  -1.011672  -1.942694   2.133269  -1.891346   0.801742  -0.114898   0.513098   1.086782   2.478538   0.859599   5.990156   7.546909  13.074814  49.064998  -0.000006  15.951811   0.000028   9.201685   2.089581   4.519325   2.276320  -3.360105  -4.523542   8.799662 -17.248613 -48.183095   0.000139 -14.466792   0.000194   9.811097  -2.490176  -5.213001  -1.100451  -3.064856  -7.367408  28.585273  -0.000013  -0.000528  -7.759556  -5.187964   5.392131  -8.141780   0.005967  -0.003838   9.703358   0.538274   2.353822  -0.000017  -0.000000   0.000000  -4.578027   3.875574   1.048971  -0.391269   0.000168  -0.000033
